<svg xmlns="http://www.w3.org/2000/svg" width="62" height="56"><path fill="#BE1FB8" d="M0 0h62v56H0V0Z"/><path fill="#E7B7EB" d="M36 12a763.515 763.515 0 0 1-.438 4.375c-.08.812-.162 1.624-.246 2.46C35 21 35 21 34 23l2.117-.035c.91-.01 1.82-.018 2.758-.027l2.742-.036C44 23 44 23 46 24c.255 2.91.348 4.491-1.33 6.945l-1.846 1.825-2.01 2.001c-.701.674-1.403 1.348-2.127 2.041l-2.091 2.1C31.408 44 31.408 44 28 44l1-11-7.617.195C19 33 19 33 17 31c.5-5.079 4.486-8.213 7.813-11.75l1.908-2.113 1.861-1.996 1.695-1.828C32 12 32 12 36 12Z"/><path fill="#101228" d="M0 0h10L5.41 5.273c-4.185 5.125-2.717 13.38-2.76 19.729a437.766 437.766 0 0 1-.082 5.344 492.504 492.504 0 0 0-.091 7.728l-.07 2.39C2.435 47.399 5.21 51.21 10 56H0V0Z"/><path fill="#24102F" d="M53 0h9v56h-9l4.59-5.176c2.994-3.873 2.587-8.12 2.613-12.781l.017-2.365c.01-1.652.016-3.304.02-4.956.01-2.515.04-5.03.072-7.544.007-1.608.012-3.215.016-4.823l.038-2.263c-.026-6.047-1.466-10.03-5.553-14.467L53 0Z"/><path fill="#C33CC0" d="M30 18h2v8l10 1c-1.747 3.494-2.914 5.14-5.625 7.75l-1.914 1.86L33 38c-1-3-1-3 0-8l-12-1 2.813-3.25c1.743-2.023 3.378-4.016 4.937-6.188L30 18Z"/><path fill="#F5E4F8" d="m35 13-1 7-4-1-1.496 1.715-1.942 2.223-1.933 2.214c-.854.97-1.716 1.935-2.629 2.848l9 1 1 4-14-1-1-4c1.371-1.895 1.371-1.895 3.438-3.813l2.222-2.082L25 20l2.246-2.074C32.691 13 32.691 13 35 13Z"/><path fill="#EFC7EB" d="M36 12a763.515 763.515 0 0 1-.438 4.375c-.08.812-.162 1.624-.246 2.46C35 21 35 21 34 23h10v3c-2 2-2 2-4.348 2.012l-2.715-.325-2.722-.3C32 27 32 27 31 26c-.25-2.875-.25-2.875 0-6 1.438-1.625 1.438-1.625 3-3l1-4-8 7-2-1a244.6 244.6 0 0 1 3.25-3.5l1.828-1.969C32 12 32 12 36 12Z"/><path fill="#7614C0" d="m8 1 3 1-1.277 1.207-1.66 1.606L6.41 6.394c-3.096 3.524-2.555 7.748-2.543 12.16l-.003 2.238c0 1.562.001 3.123.006 4.685.005 2.381 0 4.762-.007 7.143 0 1.52.002 3.04.004 4.559l-.006 2.147C3.878 43.01 4.124 46.418 5 50c-1.473-.975-1.473-.975-3-3a73.435 73.435 0 0 1-.434-8.395l-.015-2.5c-.007-1.745-.006-3.491.003-5.237.008-2.66-.02-5.319-.052-7.98-.002-1.698-.001-3.396.002-5.095l-.034-2.396C1.548 9.125 3.51 5.49 8 1Z"/><path fill="#F7E0F2" d="M45 24h1c.313 2.168.313 2.168 0 5-2.188 2.676-2.188 2.676-5 5.313l-2.813 2.675L36 39l-3-2 1.863-1.828 2.45-2.422 2.425-2.39C41.687 28.326 43.322 26.25 45 24Z"/><path fill="#F9EDF9" d="M29 35h2v4h2l-1 4-4 1 1-9Z"/><path fill="#FEFCFE" d="m35 13-1 7-4-4c2.75-3 2.75-3 5-3Z"/></svg>